<svg width="100%" height="100%" viewBox="0 0 31 40" version="1.1" xmlns="http://www.w3.org/2000/svg" xmlns:xlink="http://www.w3.org/1999/xlink" xml:space="preserve" style="fill-rule:evenodd;clip-rule:evenodd;stroke-linejoin:round;stroke-miterlimit:2;">
    <g transform="matrix(1,0,0,1,-10,-5.01299)">
        <g id="border" transform="matrix(1.00043,0,0,1,-0.0173251,0)">
            <path d="M10.013,15.013C10.013,9.49 14.49,5.013 20.013,5.013L30.013,5.013C35.536,5.013 40.013,9.49 40.013,15.013L40.013,45.013L25.013,29.876L10.013,45.013L10.013,15.013ZM14.011,15.013C14.011,11.699 16.699,9.013 20.013,9.013C20.013,9.013 30.013,9.013 30.013,9.013C33.327,9.013 36.015,11.699 36.015,15.013C36.015,15.013 36.015,35.297 36.015,35.297C36.015,35.297 25.013,24.194 25.013,24.194L14.011,35.297L14.011,15.013Z" style="fill:rgb(254,138,139);"/>
        </g>
        <g id="fill" transform="matrix(1.00043,0,0,1,-0.0173251,0)">
            <path d="M10.013,15.013C10.013,9.49 14.49,5.013 20.013,5.013L30.013,5.013C35.536,5.013 40.013,9.49 40.013,15.013L40.013,45.013L25.013,29.876L10.013,45.013L10.013,15.013Z" style="fill:rgb(254,138,139);"/>
        </g>
    </g>
</svg>
